/* XPM */
static const char *const file_import_xpm[] = {
"16 16 96 2",
"  	c None",
". 	c #B1B3B3",
"+ 	c #ADB0B0",
"@ 	c #ACAEAE",
"# 	c #ABAEAE",
"$ 	c #ABAEAD",
"% 	c #ADAFAF",
"& 	c #AEB0B0",
"* 	c #FFFFFF",
"= 	c #E9E9E9",
"- 	c #DEDFE0",
"; 	c #DEDFE1",
"> 	c #A2A5A5",
", 	c #E8E7E7",
"' 	c #ACAFAF",
") 	c #E2E3E4",
"! 	c #E3E4E5",
"~ 	c #A4A6A6",
"{ 	c #FAFBFB",
"] 	c #ABADAD",
"^ 	c #E6E7E7",
"/ 	c #E7E8E8",
"( 	c #E5E7E6",
"_ 	c #CACBCB",
": 	c #E9E9EA",
"< 	c #EAEAEB",
"[ 	c #F5F5F6",
"} 	c #B0B0B2",
"| 	c #EBECEE",
"1 	c #ECEDEE",
"2 	c #EFEFF1",
"3 	c #F5F3F7",
"4 	c #F9F5FC",
"5 	c #FAF5FD",
"6 	c #BBB5BE",
"7 	c #EFF0F0",
"8 	c #F0F1F1",
"9 	c #F8F6FA",
"0 	c #80A77D",
"a 	c #367732",
"b 	c #377834",
"c 	c #377835",
"d 	c #397937",
"e 	c #417F3D",
"f 	c #4B8647",
"g 	c #F2F2F3",
"h 	c #F4F3F5",
"i 	c #FFFBFF",
"j 	c #BDD590",
"k 	c #B9D38E",
"l 	c #BAD390",
"m 	c #BBD492",
"n 	c #BAD38F",
"o 	c #C2D995",
"p 	c #4A8447",
"q 	c #F8F7F9",
"r 	c #B3CF83",
"s 	c #A0C26D",
"t 	c #599502",
"u 	c #B4D083",
"v 	c #488346",
"w 	c #F8F8F8",
"x 	c #FBFAFB",
"y 	c #387836",
"z 	c #A7C971",
"A 	c #A7C777",
"B 	c #9DC26B",
"C 	c #A4C76C",
"D 	c #488347",
"E 	c #FCFDFD",
"F 	c #FEFEFF",
"G 	c #397938",
"H 	c #9CC563",
"I 	c #6BA51E",
"J 	c #A4C775",
"K 	c #98C25B",
"L 	c #498348",
"M 	c #3B7A3A",
"N 	c #93C253",
"O 	c #93C250",
"P 	c #4A844A",
"Q 	c #AFB1B1",
"R 	c #B7B3BA",
"S 	c #417F3F",
"T 	c #92C54E",
"U 	c #87BE42",
"V 	c #84BB3E",
"W 	c #83BB3D",
"X 	c #86BD40",
"Y 	c #93C64F",
"Z 	c #4D864B",
"` 	c #427F3E",
" .	c #4C854A",
"..	c #4B844B",
"+.	c #4D864C",
"@.	c #497D47",
"    . + @ # # $ # % &           ",
"    % * * * * * * * = @         ",
"    @ * - ; ; - * > * , '       ",
"    # * ) ! ! ) * ~ { * = &     ",
"    ] * ^ / / ( * _ ~ > * %     ",
"    ] * : < < < [ * * * * }     ",
"    ] * | 1 2 3 4 5 5 5 * 6     ",
"    ] * 7 8 9 0 a b c c d e f   ",
"    ] * g h i a j k l m n o p   ",
"    ] * [ q * c r * s t * u v   ",
"    ] * w x * y z A * B * C D   ",
"    # * E F * G H I J * * K L   ",
"    + * * * * M N * * * * O P   ",
"    Q % # % R S T U V W X Y Z   ",
"              `  ...P P ..+.@.  ",
"                                "};
