/* XPM */
static const char *const new_file_xpm[] = {
"16 15 104 2",
"  	c None",
". 	c #E66500",
"+ 	c #E56200",
"@ 	c #E46200",
"# 	c #E66200",
"$ 	c #FFB64D",
"% 	c #FFB54D",
"& 	c #FFB34B",
"* 	c #FFB347",
"= 	c #D5AE91",
"- 	c #E75F00",
"; 	c #FFB24B",
"> 	c #E46000",
", 	c #E56400",
"' 	c #E25700",
") 	c #FFFFFF",
"! 	c #D5A986",
"~ 	c #E86903",
"{ 	c #E96D07",
"] 	c #E86A04",
"^ 	c #FFB34C",
"/ 	c #E45A00",
"( 	c #EEFDFF",
"_ 	c #D5AE92",
": 	c #FFB149",
"< 	c #EA6D07",
"[ 	c #EB710B",
"} 	c #EA6F08",
"| 	c #F48721",
"1 	c #F07F17",
"2 	c #E55D00",
"3 	c #E35A00",
"4 	c #FFAF44",
"5 	c #FFAE48",
"6 	c #EC730D",
"7 	c #ED760F",
"8 	c #ED740C",
"9 	c #EC7005",
"0 	c #EE8326",
"a 	c #EC6F04",
"b 	c #EC730B",
"c 	c #ED7610",
"d 	c #EC740E",
"e 	c #FFAD46",
"f 	c #EE7610",
"g 	c #EE7309",
"h 	c #F29646",
"i 	c #FCE2CD",
"j 	c #FFAB45",
"k 	c #EF770D",
"l 	c #FEFBF5",
"m 	c #FFAA44",
"n 	c #F37B11",
"o 	c #FFF0D8",
"p 	c #FFEBC8",
"q 	c #FFFFFE",
"r 	c #FFFFFD",
"s 	c #FFFFF3",
"t 	c #FFEECC",
"u 	c #FFF7E7",
"v 	c #F37A11",
"w 	c #FFA742",
"x 	c #F58117",
"y 	c #FFECCF",
"z 	c #FFC67D",
"A 	c #FFD49D",
"B 	c #FFFBEE",
"C 	c #FFD8A9",
"D 	c #FFD6A5",
"E 	c #FFF3E2",
"F 	c #F58017",
"G 	c #FFA641",
"H 	c #F7851C",
"I 	c #FFC881",
"J 	c #FFC77F",
"K 	c #FFF6EC",
"L 	c #FFD7A6",
"M 	c #F7851B",
"N 	c #FFA43F",
"O 	c #F98C23",
"P 	c #FEF1E2",
"Q 	c #FFDAA8",
"R 	c #FFC77E",
"S 	c #FFF5EB",
"T 	c #FFD9AB",
"U 	c #FFEBD2",
"V 	c #FEF7EE",
"W 	c #F98C22",
"X 	c #FFA23E",
"Y 	c #FC932E",
"Z 	c #FC9027",
"` 	c #FDAD62",
" .	c #FEDBB5",
"..	c #FEE7D1",
"+.	c #FDAC5F",
"@.	c #E56300",
"#.	c #FFA340",
"$.	c #FF9D38",
"%.	c #FF9C35",
"&.	c #FF9931",
"*.	c #FF982E",
"=.	c #FF9930",
"-.	c #D15C00",
";.	c #E46300",
"    . + @ @ @ @ @ @ + #         ",
"    + $ % $ $ $ % & * = -       ",
"    @ ; > , , , > ; ' ) ! -     ",
"    @ ; ~ { { { ] ^ / ( ) _ #   ",
"    @ : < [ [ [ } | 1 2 3 4 +   ",
"    @ 5 6 7 8 9 0 a b c d 5 @   ",
"    @ e f g h i ) i h g f e @   ",
"    @ j k l ) ) ) ) ) l k j @   ",
"    @ m n o p q r s t u v m @   ",
"    @ w x y z A B C D E F w @   ",
"    @ G H y I J K L L E M G @   ",
"    @ N O P Q R S T U V W N @   ",
"    @ X Y Z `  .) ..+.Z Y X @   ",
"    @.#.$.$.%.&.*.=.%.$.$.#.@.  ",
"    -.@.;.;.;.;.;.;.;.;.;.@.-.  "};
