/* XPM */
static const char *const paste_xpm[] = {
"16 16 127 2",
"  	c None",
". 	c #8E9399",
"+ 	c #A37A47",
"@ 	c #A4773E",
"# 	c #D8DDE5",
"$ 	c #A6773C",
"% 	c #AA7941",
"& 	c #9F7542",
"* 	c #F4D2AD",
"= 	c #CB9759",
"- 	c #9BA1A7",
"; 	c #C5CBD6",
"> 	c #FFD4A5",
", 	c #B07331",
"' 	c #9D723E",
") 	c #F8E7D4",
"! 	c #A7957F",
"~ 	c #638E98",
"{ 	c #147FBC",
"] 	c #127CB9",
"^ 	c #107CBA",
"/ 	c #147EBB",
"( 	c #1B7FB8",
"_ 	c #2080B6",
": 	c #2683B7",
"< 	c #9A703D",
"[ 	c #F0DEC6",
"} 	c #CD9A5E",
"| 	c #CF9B5E",
"1 	c #D99B56",
"2 	c #107FC1",
"3 	c #FFFFFF",
"4 	c #C4DCEC",
"5 	c #2280B5",
"6 	c #9A6F3E",
"7 	c #EAD5B9",
"8 	c #C69457",
"9 	c #C8975B",
"0 	c #CA985B",
"a 	c #D59852",
"b 	c #0F7DBE",
"c 	c #B1D8E7",
"d 	c #B0D7E7",
"e 	c #0570AC",
"f 	c #2783B7",
"g 	c #996E3E",
"h 	c #E4CAAC",
"i 	c #C19156",
"j 	c #C3935A",
"k 	c #C59459",
"l 	c #CF9350",
"m 	c #BCDDEB",
"n 	c #BDDDEB",
"o 	c #BBDCEB",
"p 	c #6DABCF",
"q 	c #976D3E",
"r 	c #DDC19F",
"s 	c #BD8E53",
"t 	c #BF9157",
"u 	c #CA904C",
"v 	c #107DBE",
"w 	c #C7E3ED",
"x 	c #C8E3ED",
"y 	c #E1F0F6",
"z 	c #1E7FB4",
"A 	c #976C3E",
"B 	c #D5B691",
"C 	c #BA8B52",
"D 	c #BB8C55",
"E 	c #BD8D54",
"F 	c #C68B4A",
"G 	c #107EBF",
"H 	c #CFE8F1",
"I 	c #D0E8F1",
"J 	c #CFE7F0",
"K 	c #CDE6F0",
"L 	c #CDE7F0",
"M 	c #1E7EB4",
"N 	c #976B3F",
"O 	c #CCAB82",
"P 	c #B58850",
"Q 	c #B68A52",
"R 	c #B88A51",
"S 	c #C08847",
"T 	c #D9ECF3",
"U 	c #DAECF3",
"V 	c #D8ECF3",
"W 	c #956B3F",
"X 	c #C3A174",
"Y 	c #B1864F",
"Z 	c #B28751",
"` 	c #B4874F",
" .	c #BC8545",
"..	c #117EBF",
"+.	c #E5F2F8",
"@.	c #E6F2F8",
"#.	c #E7F3F8",
"$.	c #956A3F",
"%.	c #BB9465",
"&.	c #AE834C",
"*.	c #AE834E",
"=.	c #B0834C",
"-.	c #B88041",
";.	c #127FC0",
">.	c #ACD5E5",
",.	c #AFD6E6",
"'.	c #946A3F",
").	c #B08A56",
"!.	c #AB824C",
"~.	c #AB824D",
"{.	c #AC824B",
"].	c #B37E40",
"^.	c #1380C0",
"/.	c #AED6E6",
"(.	c #B0D7E6",
"_.	c #1F7FB5",
":.	c #88603B",
"<.	c #936840",
"[.	c #93683F",
"}.	c #95673E",
"|.	c #9B6433",
"1.	c #1984C3",
"2.	c #2481B6",
"3.	c #2287C2",
"4.	c #2282B8",
"5.	c #207FB5",
"6.	c #2C85B7",
"        . . .                   ",
"+ @ @ . # # # . @ $ %           ",
"& * = - ; ; ; - = > ,           ",
"' ) = ! . . ~ { ] ^ / ( _ :     ",
"< [ = } | 1 2 3 3 3 3 3 3 4 5   ",
"6 7 8 9 0 a b 3 c c d 3 e 3 4 f ",
"g h i j k l b 3 m n o 3 p e 3 5 ",
"q r s t i u v 3 w x w y 3 3 3 z ",
"A B C D E F G 3 H I I J K L 3 M ",
"N O P Q R S G 3 T T U T T V 3 M ",
"W X Y Z `  ...3 +.@.#.#.@.+.3 M ",
"$.%.&.*.=.-.;.3 >.,.,.,.,.>.3 M ",
"'.).!.~.{.].^.3 /.,.(.(.,./.3 _.",
":.<.[.<.}.|.1.3 3 3 3 3 3 3 3 2.",
"            3.4.5._._._._.5.2.6.",
"                                "};
