/* XPM */
static const char *const save_xpm[] = {
"16 16 139 2",
"  	c None",
". 	c #1481B7",
"+ 	c #0F7EB5",
"@ 	c #0B7CB5",
"# 	c #097CB5",
"$ 	c #1581B7",
"% 	c #CDECFF",
"& 	c #C3E7FC",
"* 	c #FFFFFF",
"= 	c #1280B6",
"- 	c #D1ECFD",
"; 	c #0086DA",
"> 	c #D8E5F1",
", 	c #D8E5F2",
"' 	c #D7E5F2",
") 	c #D6E3F0",
"! 	c #D5E2EF",
"~ 	c #D7E4F1",
"{ 	c #D6E4F1",
"] 	c #D6E3EF",
"^ 	c #C6E9FE",
"/ 	c #004171",
"( 	c #7A7979",
"_ 	c #7A7A7A",
": 	c #A1A1A2",
"< 	c #9F9F9F",
"[ 	c #DEECF6",
"} 	c #777777",
"| 	c #A1A1A1",
"1 	c #A09F9E",
"2 	c #004170",
"3 	c #1381B6",
"4 	c #BCE3FC",
"5 	c #04619B",
"6 	c #F9FCFD",
"7 	c #E8F5FD",
"8 	c #E7F4FE",
"9 	c #E5F2FB",
"0 	c #E5F2FC",
"a 	c #E3F1FA",
"b 	c #E5F1F9",
"c 	c #F7FAFC",
"d 	c #04619A",
"e 	c #1480B6",
"f 	c #B0DCF8",
"g 	c #1C98E0",
"h 	c #F8FBFB",
"i 	c #7B7879",
"j 	c #A2A0A2",
"k 	c #EAF6FC",
"l 	c #797879",
"m 	c #A3A1A3",
"n 	c #A19FA0",
"o 	c #E9F4FA",
"p 	c #A09D9D",
"q 	c #F6F9F9",
"r 	c #A7D8F6",
"s 	c #279CE0",
"t 	c #FFFFFB",
"u 	c #F3FBFC",
"v 	c #EFF9FC",
"w 	c #EEF8FB",
"x 	c #F0FAFC",
"y 	c #EEF9FB",
"z 	c #EDF8F9",
"A 	c #F1F9FA",
"B 	c #FEFEFA",
"C 	c #279BE0",
"D 	c #1481B6",
"E 	c #A0D4F4",
"F 	c #36A1E1",
"G 	c #B7DEF2",
"H 	c #FFFFFC",
"I 	c #FDFFFB",
"J 	c #FCFFFB",
"K 	c #1581B6",
"L 	c #9AD0F3",
"M 	c #45A8E5",
"N 	c #40A6E3",
"O 	c #36A1E2",
"P 	c #2F9EE2",
"Q 	c #2D9DE1",
"R 	c #2C9DE1",
"S 	c #94CEF3",
"T 	c #51AEE6",
"U 	c #4BABE5",
"V 	c #A4C9E6",
"W 	c #FFFFFE",
"X 	c #FFFFFD",
"Y 	c #4BACE5",
"Z 	c #1681B6",
"` 	c #8ECCF3",
" .	c #5AB2E8",
"..	c #51AEE7",
"+.	c #D7E0EC",
"@.	c #DAE4F1",
"#.	c #DAE5F1",
"$.	c #D5E0ED",
"%.	c #D3DDEA",
"&.	c #D5DEE9",
"*.	c #89CBF1",
"=.	c #62B7E9",
"-.	c #57B2E7",
";.	c #FBF8F9",
">.	c #F2F7FD",
",.	c #797F87",
"'.	c #41444A",
").	c #F2F7FE",
"!.	c #D8E3EE",
"~.	c #D9E2ED",
"{.	c #FBF7F8",
"].	c #57B2E8",
"^.	c #87CAF3",
"/.	c #6DBCED",
"(.	c #61B7EB",
"_.	c #F7F5F8",
":.	c #41454A",
"<.	c #888C94",
"[.	c #E0E8F1",
"}.	c #E0E7F0",
"|.	c #F7F4F7",
"1.	c #1882B7",
"2.	c #8BCDF6",
"3.	c #7DC6F2",
"4.	c #71C1F0",
"5.	c #FBF7FA",
"6.	c #48484C",
"7.	c #929398",
"8.	c #EAEFF7",
"9.	c #EBEFF6",
"0.	c #FAF6F9",
"a.	c #146C97",
"b.	c #067AB3",
"c.	c #D2CFD7",
"d.	c #C9CED8",
"e.	c #CECFD9",
"f.	c #C3CAD5",
"g.	c #C4CAD4",
"h.	c #D2CFD6",
"  . + @ # # # # # # # # @ + .   ",
"$ % & * * * * * * * * * * & % $ ",
"= - ; * > , ' ) ! ~ { ] * ; - = ",
"= ^ / * ( _ : < [ } | 1 * 2 ^ = ",
"3 4 5 6 7 8 9 0 9 9 a b c d 4 3 ",
"e f g h i j k l m n o p q g f e ",
"e r s t u v w x x y z A B C r e ",
"D E F G H I J I I I I t G F E D ",
"K L M N O P Q R R Q P O N M L K ",
"K S T U V * * * W X W V Y T S K ",
"Z `  ...H +.@.#.$.%.&.t .. .` Z ",
"Z *.=.-.;.>.,.'.).!.~.{.].=.*.Z ",
"Z ^./.(._.* :.<.* [.}.|.(./.^.Z ",
"1.2.3.4.5.* 6.7.* 8.9.0.4.3.2.1.",
"a.1.e b.c.d.    e.f.g.h.b.e 1.a.",
"                                "};
