/* XPM */
static const char *const copy_xpm[] = {
"16 16 64 1",
" 	c None",
".	c #2D87B9",
"+	c #2481B6",
"@	c #1F7FB5",
"#	c #1E7EB4",
"$	c #1F7FB4",
"%	c #2280B5",
"&	c #2783B7",
"*	c #FFFFFF",
"=	c #C4DCEC",
"-	c #B1D8E7",
";	c #B0D7E7",
">	c #0570AC",
",	c #C3DCEC",
"'	c #2682B6",
")	c #BCDDEB",
"!	c #BDDDEB",
"~	c #BBDCEB",
"{	c #6DABCF",
"]	c #1C7DB3",
"^	c #2180B5",
"/	c #207FB5",
"(	c #C7E3ED",
"_	c #C8E3ED",
":	c #E1F0F6",
"<	c #1176B0",
"[	c #CFE8F1",
"}	c #D0E8F1",
"|	c #CFE7F0",
"1	c #CDE6F0",
"2	c #CDE7F0",
"3	c #0E74AE",
"4	c #BCDEEB",
"5	c #D9ECF3",
"6	c #DAECF3",
"7	c #D8ECF3",
"8	c #C7E4EF",
"9	c #E5F2F8",
"0	c #E6F2F8",
"a	c #E7F3F8",
"b	c #D3EAF1",
"c	c #E4F1F7",
"d	c #1E7FB4",
"e	c #ACD5E5",
"f	c #AFD6E6",
"g	c #DEF0F6",
"h	c #D1E8F1",
"i	c #AED6E6",
"j	c #B0D7E6",
"k	c #E7F5F8",
"l	c #DCEEF4",
"m	c #1076B0",
"n	c #F4FBFC",
"o	c #E9F4F9",
"p	c #2C85B7",
"q	c #1A7BB3",
"r	c #1277B0",
"s	c #1276B0",
"t	c #328ABB",
"u	c #B8DCEA",
"v	c #B1D7E7",
"w	c #BADDEA",
"x	c #B3D9E8",
"y	c #2582B6",
".+@##$%&        ",
"+******=%       ",
"@*--;*>*,'      ",
"#*)!~*{>*]^/%&  ",
"#*(_(:***<***=% ",
"#*[}}|12*34*>*=&",
"#*556557*38*{>*%",
"#*90aa09*3bc***d",
"#*effffe*3gh12*#",
"@*ifjjfi*3kl57*#",
"+********mno09*#",
"p+/@@#qrstuvfe*#",
"      %*wuxvfi*@",
"      y********+",
"      p+/@@@@/+p",
"                "};
