/* XPM */
static const char *const cut_xpm[] = {
"16 16 56 1",
" 	c None",
".	c #B6B8BA",
"+	c #D1D1D3",
"@	c #ABADAF",
"#	c #B5B7B9",
"$	c #D6D7D9",
"%	c #C0C2C2",
"&	c #D3D4D4",
"*	c #D8D9DA",
"=	c #D1D2D4",
"-	c #BABBBD",
";	c #949496",
">	c #EBEAEB",
",	c #D4D5D7",
"'	c #CACBCD",
")	c #C5C7C8",
"!	c #A5A8AA",
"~	c #EBEBEB",
"{	c #D1D1D2",
"]	c #C3C3C4",
"^	c #C6C6C7",
"/	c #9B9B9C",
"(	c #EFEDEC",
"_	c #A8B4BD",
":	c #D0CCCA",
"<	c #A19B98",
"[	c #1D7CD3",
"}	c #5E8BB9",
"|	c #6889AB",
"1	c #8E959E",
"2	c #4D9BE0",
"3	c #6D90B3",
"4	c #2D79BE",
"5	c #3885CC",
"6	c #3B83C7",
"7	c #3B80C2",
"8	c #3C7EBE",
"9	c #3687D0",
"0	c #3582C9",
"a	c #3677B6",
"b	c #3A7EBF",
"c	c #306193",
"d	c #3E79B6",
"e	c #3986CF",
"f	c #3C7FC0",
"g	c #3A7BB9",
"h	c #3D7BBA",
"i	c #3F75B0",
"j	c #3A84C9",
"k	c #3D7BB9",
"l	c #3A71A9",
"m	c #3F77B0",
"n	c #3B6C9F",
"o	c #3C80C1",
"p	c #3F77B2",
"q	c #315884",
"      .         ",
"      +@        ",
"  #   $%        ",
"  &*  =-        ",
"  ;>, ')        ",
"   !~{]^        ",
"    /(_:        ",
"     <[}        ",
"      |12       ",
"      3 45678   ",
"     90  ab cd  ",
"    e f   gh i  ",
"    j k    lmn  ",
"    o p         ",
"    kmq         ",
"                "};
