/* XPM */
static const char *const file_export_xpm[] = {
"16 16 163 2",
"  	c None",
". 	c #CF9239",
"+ 	c #D09239",
"@ 	c #CF9139",
"# 	c #CE9038",
"$ 	c #E6AD4A",
"% 	c #DEA649",
"& 	c #C58D3D",
"* 	c #DEA547",
"= 	c #F7BF53",
"- 	c #CD8F37",
"; 	c #E8B24F",
"> 	c #F8C45D",
", 	c #F9C45D",
"' 	c #FAC65E",
") 	c #E1AB50",
"! 	c #BB8438",
"~ 	c #CE9138",
"{ 	c #EDB858",
"] 	c #FDCD69",
"^ 	c #E0AB52",
"/ 	c #C38C3D",
"( 	c #E1AE54",
"_ 	c #FDCC68",
": 	c #C58D3F",
"< 	c #E2AC54",
"[ 	c #FECD6A",
"} 	c #CD8F35",
"| 	c #FFD874",
"1 	c #E3B055",
"2 	c #C48D3E",
"3 	c #E5B359",
"4 	c #FFD572",
"5 	c #FFD471",
"6 	c #FFD26F",
"7 	c #FFD270",
"8 	c #FFD574",
"9 	c #FFD87B",
"0 	c #F0B763",
"a 	c #CD9045",
"b 	c #E7B158",
"c 	c #FFD875",
"d 	c #CE8F35",
"e 	c #CD8E32",
"f 	c #FBE6C4",
"g 	c #F4CF91",
"h 	c #F4D093",
"i 	c #F3CF93",
"j 	c #F3CE93",
"k 	c #F4CE93",
"l 	c #F6CF94",
"m 	c #FFD29B",
"n 	c #2D8300",
"o 	c #71A500",
"p 	c #7FA639",
"q 	c #FFD199",
"r 	c #FFE8C6",
"s 	c #CE8E33",
"t 	c #FBE1B4",
"u 	c #ECAC3C",
"v 	c #EDAE40",
"w 	c #EDAE41",
"x 	c #EFAE42",
"y 	c #F5AF45",
"z 	c #FAB047",
"A 	c #FDB149",
"B 	c #FFB34E",
"C 	c #368400",
"D 	c #D2E276",
"E 	c #72A600",
"F 	c #7C910A",
"G 	c #FFE4BD",
"H 	c #D28F35",
"I 	c #CD8E33",
"J 	c #FBDDA5",
"K 	c #F0B549",
"L 	c #F0B64E",
"M 	c #F1B750",
"N 	c #F9B953",
"O 	c #7D9914",
"P 	c #318400",
"Q 	c #338300",
"R 	c #368300",
"S 	c #368100",
"T 	c #D5E481",
"U 	c #C1D957",
"V 	c #72A900",
"W 	c #84A73A",
"X 	c #DC903D",
"Y 	c #FCDB9A",
"Z 	c #F3BC54",
"` 	c #F3BD57",
" .	c #F5BD59",
"..	c #FFC05F",
"+.	c #318300",
"@.	c #DEEE96",
"#.	c #D2E84D",
"$.	c #D2E750",
"%.	c #D1E64D",
"&.	c #D7E893",
"*.	c #97C300",
"=.	c #C3DF5D",
"-.	c #76B000",
";.	c #7B8C13",
">.	c #CD8E34",
",.	c #FCD98F",
"'.	c #F7C45F",
").	c #FAC562",
"!.	c #FFC868",
"~.	c #328200",
"{.	c #CDE76D",
"].	c #99C800",
"^.	c #97C700",
"/.	c #98C800",
"(.	c #9ACA00",
"_.	c #C9E660",
":.	c #3E8900",
"<.	c #CD8E35",
"[.	c #FFD988",
"}.	c #FCCB68",
"|.	c #FBCB69",
"1.	c #FDCC6A",
"2.	c #FFCF71",
"3.	c #BCE73F",
"4.	c #9ED700",
"5.	c #9FD700",
"6.	c #9ED500",
"7.	c #9CD000",
"8.	c #9BD000",
"9.	c #9CD300",
"0.	c #77B800",
"a.	c #7B8C14",
"b.	c #CE8F36",
"c.	c #FFDF84",
"d.	c #FFD876",
"e.	c #FFD776",
"f.	c #FFD878",
"g.	c #FFDA7D",
"h.	c #86A828",
"i.	c #368700",
"j.	c #398700",
"k.	c #3C8700",
"l.	c #3E8300",
"m.	c #A0D900",
"n.	c #9ED800",
"o.	c #76BB00",
"p.	c #8AA932",
"q.	c #DD9241",
"r.	c #CC8E36",
"s.	c #CD8E36",
"t.	c #D08F38",
"u.	c #D7913C",
"v.	c #DC9340",
"w.	c #DF9342",
"x.	c #E69346",
"y.	c #3E8800",
"z.	c #A4E400",
"A.	c #7BBE00",
"B.	c #7A8A16",
"C.	c #D2913C",
"D.	c #3D8A00",
"E.	c #82C600",
"F.	c #3B7B00",
"      . . + . @ @ . + . .       ",
"    # $ % & * = = * & % $ #     ",
"  - ; > , ' ) ! ! ) ' , > ; -   ",
"~ { ] ] ^ / ( _ _ ( : < [ [ { ~ ",
"} | 1 2 3 4 5 6 7 8 9 0 a b c d ",
"e f g h h i j k l m n o p q r s ",
"e t u v w x y z A B C D E F G H ",
"I J K L M N O P Q R S T U V W X ",
"I Y Z `  ...+.@.#.$.%.&.*.=.-.;.",
">.,.> '.).!.~.{.].].].^./.(._.:.",
"<.[.}.|.1.2.~.3.4.5.6.7.8.9.0.a.",
"b.c.d.e.f.g.h.i.j.k.l.m.n.o.p.q.",
"# b.r.r.s.t.u.v.w.x.y.z.A.B.q.C.",
"                    D.E.F.      ",
"                                ",
"                                "};
