/* XPM */
static const char *const open_file_xpm[] = {
"16 16 123 2",
"  	c None",
". 	c #D29843",
"+ 	c #D0943D",
"@ 	c #CF923A",
"# 	c #D19741",
"$ 	c #FFFCDC",
"% 	c #FFF7D8",
"& 	c #FFFADB",
"* 	c #CD8E35",
"= 	c #CE9139",
"- 	c #CF923B",
"; 	c #FFF7D5",
"> 	c #F9D160",
", 	c #F8D061",
"' 	c #FDEBB4",
") 	c #FFF6D9",
"! 	c #FFF8DA",
"~ 	c #FFF9DB",
"{ 	c #FFFADC",
"] 	c #FFFBDC",
"^ 	c #FFFFE0",
"/ 	c #D0953E",
"( 	c #FFF6CA",
"_ 	c #F9D569",
": 	c #F9D56C",
"< 	c #F9D56B",
"[ 	c #FAD569",
"} 	c #FBD76A",
"| 	c #FAD468",
"1 	c #F1C75E",
"2 	c #F2C75E",
"3 	c #F2C85D",
"4 	c #F8E3B4",
"5 	c #CF923C",
"6 	c #FFF3C0",
"7 	c #FBDA71",
"8 	c #FBDB74",
"9 	c #FCDB75",
"0 	c #FCDC76",
"a 	c #FADA73",
"b 	c #D49C44",
"c 	c #CB8C37",
"d 	c #CB8C36",
"e 	c #CC8C35",
"f 	c #CC8D34",
"g 	c #CE9038",
"h 	c #CF923D",
"i 	c #FFF4B9",
"j 	c #FBDB73",
"k 	c #F2CC6B",
"l 	c #F3CD6C",
"m 	c #F3CE6C",
"n 	c #F3CE6D",
"o 	c #D49C47",
"p 	c #E9BA56",
"q 	c #FFF6D7",
"r 	c #FFF6D6",
"s 	c #FFF6D5",
"t 	c #FFFCDB",
"u 	c #D0943E",
"v 	c #FFF0AB",
"w 	c #D69D44",
"x 	c #CB8B37",
"y 	c #EABE5C",
"z 	c #FBD96F",
"A 	c #FAD66A",
"B 	c #F9D568",
"C 	c #F9D467",
"D 	c #F9D466",
"E 	c #FCDE82",
"F 	c #F6E0AA",
"G 	c #BC8538",
"H 	c #D09540",
"I 	c #F5D78A",
"J 	c #D8A144",
"K 	c #FFFDDD",
"L 	c #FFFADA",
"M 	c #FFFADE",
"N 	c #FCDC74",
"O 	c #FADB76",
"P 	c #FADA75",
"Q 	c #FADA74",
"R 	c #FAD972",
"S 	c #FFE8A1",
"T 	c #E6BF7C",
"U 	c #D19642",
"V 	c #E8BE6B",
"W 	c #E6BD6D",
"X 	c #FFF2BB",
"Y 	c #FDDE75",
"Z 	c #FCDE77",
"` 	c #FCDE78",
" .	c #FCDF7B",
"..	c #FCDF7D",
"+.	c #FCDF7C",
"@.	c #FDE080",
"#.	c #FFF0AD",
"$.	c #D39D4D",
"%.	c #D9A64F",
"&.	c #F5DA8E",
"*.	c #FFEEA2",
"=.	c #FEE582",
"-.	c #FEE584",
";.	c #FEE685",
">.	c #FEE684",
",.	c #FFEB96",
"'.	c #F5D88C",
").	c #BC8539",
"!.	c #D29944",
"~.	c #D0943F",
"{.	c #FFFBAB",
"].	c #FFF39B",
"^.	c #FFF192",
"/.	c #FFF193",
"(.	c #FFF8A6",
"_.	c #E3B865",
":.	c #D19845",
"<.	c #D09440",
"[.	c #CF923E",
"}.	c #CE923E",
"|.	c #CE923F",
"1.	c #CF933F",
"2.	c #CE9441",
"                                ",
"                                ",
". + @ @ + #                     ",
"+ $ % % & * = @ @ @ @ - + .     ",
"- ; > , ' ) ! ! ~ { { ] ^ /     ",
"- ( _ : < _ [ } | 1 2 3 4 +     ",
"5 6 7 8 9 9 0 a b c d e f g + . ",
"h i j k l m n o p ! q r s ; t u ",
"u v w d d d x y z A B C D E F G ",
"H I J K L & M N O P Q Q R S T   ",
"U V W X Y Z `  .......+.@.#.$.  ",
". %.&.*.=.-.-.;.;.;.;.>.,.'.).  ",
"!.~.{.].^./././././././.(._.    ",
":.. <.[.}.|.|.|.|.|.|.|.1.2.    ",
"                                ",
"                                "};
