/* XPM */
static const char *const save_all_xpm[] = {
"16 16 83 1",
" 	c None",
".	c #1A84B9",
"+	c #1688BF",
"@	c #1B85B9",
"#	c #C8E9FF",
"$	c #FFFFFF",
"%	c #D0EDFF",
"&	c #C7E6FB",
"*	c #EFEFF0",
"=	c #73BCE0",
"-	c #B2DEF8",
";	c #EEECF0",
">	c #BFE4FC",
",	c #C9E9FF",
"'	c #A7D7F6",
")	c #A9CEEA",
"!	c #C3E4F9",
"~	c #E8ECEF",
"{	c #E9ECF0",
"]	c #ECEEF1",
"^	c #EDEEF1",
"/	c #F1F0F2",
"(	c #CDE9FD",
"_	c #9DD4F5",
":	c #44A9E7",
"<	c #B0DDF7",
"[	c #EAEAF0",
"}	c #95CFF4",
"|	c #59B3EA",
"1	c #A5D6F5",
"2	c #A8CEEA",
"3	c #C1E6FD",
"4	c #C7E9FE",
"5	c #8ECDF4",
"6	c #6ABDEE",
"7	c #9CD3F4",
"8	c #C4E4F9",
"9	c #E5EBEF",
"0	c #E0EAF0",
"a	c #E0EBF1",
"b	c #C5E5FA",
"c	c #8ECEF7",
"d	c #80C7F5",
"e	c #94CFF3",
"f	c #AFDCF7",
"g	c #E3E7EF",
"h	c #A4A9B1",
"i	c #A4ABB3",
"j	c #176E99",
"k	c #8DCDF4",
"l	c #A3D5F5",
"m	c #9DC9E8",
"n	c #E1E4ED",
"o	c #DFE4EE",
"p	c #9BD2F4",
"q	c #3BA4E3",
"r	c #35A3E3",
"s	c #31A1E3",
"t	c #35A2E3",
"u	c #9BD3F4",
"v	c #176D98",
"w	c #92CEF3",
"x	c #4DACE6",
"y	c #C6D9EA",
"z	c #FFFEFD",
"A	c #C4D7E8",
"B	c #4CACE6",
"C	c #93CEF3",
"D	c #8BCCF3",
"E	c #5CB6EB",
"F	c #ECEDF2",
"G	c #78797F",
"H	c #E2E9F1",
"I	c #E8E9EE",
"J	c #5AB5EA",
"K	c #8BCDF6",
"L	c #75C2F3",
"M	c #FFFCF9",
"N	c #908D8B",
"O	c #F9F9F9",
"P	c #FCF8F4",
"Q	c #74C1F2",
"R	c #1978A7",
".++++++++@      ",
"+#$$$$$$%+      ",
"+&*=++++++++    ",
"+-;+>$$$$$$,+   ",
"+')+!~{]]^/(+   ",
"+_:+<[=++++++++.",
"+}|+12+3$$$$$$4+",
"+56+7:+890aa09b+",
"+cd+e|+fghiihg<+",
"j+++k6+lmnoonm1+",
"   +cd+pqrsstqu+",
"   v+++wxy$zABC+",
"      +DEFGHIJD+",
"      +KLMNOPQK+",
"      j++++++++R",
"                "};
