/* XPM */
static const char *const undo_xpm[] = {
"16 16 64 1",
" 	c None",
".	c #409EE9",
"+	c #3D9AE5",
"@	c #95E0FF",
"#	c #90DBFE",
"$	c #99E5FF",
"%	c #3996E1",
"&	c #8ED9FC",
"*	c #82CCF9",
"=	c #93DEFD",
"-	c #91DBFC",
";	c #7CC4F3",
">	c #6FBAEE",
",	c #3490DB",
"'	c #8AD4F9",
")	c #92DDFD",
"!	c #7AC2F2",
"~	c #3993DC",
"{	c #5DAFE6",
"]	c #78BEEE",
"^	c #68B0E7",
"/	c #3089D4",
"(	c #87D0F6",
"_	c #5FB1E7",
":	c #2A82CD",
"<	c #73BFEC",
"[	c #69ADE4",
"}	c #3F90D4",
"|	c #4A9DDB",
"1	c #70B5E8",
"2	c #257AC5",
"3	c #76C0ED",
"4	c #5EA5DF",
"5	c #267BC6",
"6	c #63ABE2",
"7	c #1F73BE",
"8	c #6BB9E9",
"9	c #53A2DE",
"0	c #196BB6",
"a	c #54A9E1",
"b	c #48A4E2",
"c	c #2E83C7",
"d	c #338CCD",
"e	c #3BA8E8",
"f	c #4BACE6",
"g	c #1464AF",
"h	c #1264AD",
"i	c #38B3F1",
"j	c #2BACF0",
"k	c #47B2EA",
"l	c #2D83C4",
"m	c #0E5DA8",
"n	c #0E63AD",
"o	c #21B2F7",
"p	c #18AEF6",
"q	c #26B5F7",
"r	c #36BCF9",
"s	c #0658A3",
"t	c #0B7EC8",
"u	c #0CA0E9",
"v	c #0AB2FC",
"w	c #02386E",
"x	c #024A93",
"y	c #024D98",
"                ",
"        ....... ",
"        +@##$+  ",
"        %&*=%%  ",
"   -;>  ,')!'~  ",
"  {]^/  /$/(]_  ",
" :<[}   :::|1<: ",
" 2342   5  2632 ",
" 7897      7987 ",
" 0abc      cba0 ",
"  defg    gfed  ",
"  hijklmmlkjih  ",
"   nopqrrqpon   ",
"    stuvvuts    ",
"     wxyyxw     ",
"                "};
