/* XPM */
static const char *const console_xpm[] = {
"16 16 96 2",
"  	c None",
". 	c #1984B8",
"+ 	c #1782B7",
"@ 	c #1682B7",
"# 	c #1681B7",
"$ 	c #1581B6",
"% 	c #1581B7",
"& 	c #1481B7",
"* 	c #1582B8",
"= 	c #1884B9",
"- 	c #1983B8",
"; 	c #6CB4D9",
"> 	c #9CD0ED",
", 	c #9CCFEC",
"' 	c #9BCFEC",
") 	c #99CEEC",
"! 	c #98CDEB",
"~ 	c #97CDEB",
"{ 	c #97CDEC",
"] 	c #96CDEC",
"^ 	c #95CDEC",
"/ 	c #92CEEE",
"( 	c #91D1F2",
"_ 	c #67B4DC",
": 	c #1883B9",
"< 	c #B1DAF3",
"[ 	c #0074C5",
"} 	c #0181CA",
"| 	c #158BD1",
"1 	c #2994D5",
"2 	c #3B9EDB",
"3 	c #4FA9E0",
"4 	c #66B4E8",
"5 	c #0277B1",
"6 	c #A8D5F0",
"7 	c #0077B2",
"8 	c #A1D7F4",
"9 	c #EC2F20",
"0 	c #A7DBF7",
"a 	c #1281B8",
"b 	c #0F7EB5",
"c 	c #C0E1F8",
"d 	c #52A9DE",
"e 	c #60AFE1",
"f 	c #67B3E3",
"g 	c #6CB6E4",
"h 	c #73BAE6",
"i 	c #7ABDE8",
"j 	c #83C1EB",
"k 	c #76BCE8",
"l 	c #75BCE8",
"m 	c #71BDEA",
"n 	c #6EBEED",
"o 	c #CFECFE",
"p 	c #0E7EB6",
"q 	c #0A7CB5",
"r 	c #FFFFFF",
"s 	c #087BB4",
"t 	c #414143",
"u 	c #3D3D3F",
"v 	c #404042",
"w 	c #444446",
"x 	c #454547",
"y 	c #464648",
"z 	c #49494B",
"A 	c #4D4D4F",
"B 	c #4E4E50",
"C 	c #4D4D50",
"D 	c #414144",
"E 	c #545457",
"F 	c #555558",
"G 	c #087AB4",
"H 	c #545557",
"I 	c #4E4F51",
"J 	c #57585A",
"K 	c #5B5D5E",
"L 	c #5C5D5F",
"M 	c #077AB4",
"N 	c #616164",
"O 	c #5D5D60",
"P 	c #5F5F62",
"Q 	c #636266",
"R 	c #646467",
"S 	c #6A6C6D",
"T 	c #6A6B6D",
"U 	c #6B6C6E",
"V 	c #097BB5",
"W 	c #747477",
"X 	c #0A7DB6",
"Y 	c #EBE2DC",
"Z 	c #D0D0D0",
"` 	c #0F7FB7",
" .	c #FFFFFD",
"..	c #E6E7E7",
"+.	c #0973A8",
"@.	c #097CB6",
"  . + @ # # $ $ % % % % & * =   ",
"- ; > , ' ) ! ~ ~ { ] ^ / ( _ : ",
"& < [ } | 1 2 3 4 5 6 7 8 9 0 a ",
"b c d e f g h i j k l l m n o p ",
"q r r r r r r r r r r r r r r q ",
"s r t u v w x x x x x x x x r s ",
"s r y r v z A B B B B B B B r s ",
"s r C D r C E F F F F F F F r s ",
"G r H r I J K L L L L L L L r G ",
"M r N O P Q R R R R R R R R r M ",
"M r S T S U U U U U U U U U r M ",
"V r W W W W W W W W W W W W r V ",
"X Y Z Z Z Z Z Z Z Z Z Z Z Z Y X ",
"`  ......................... .` ",
"+.` X @.@.@.@.@.@.@.@.@.@.X ` +.",
"                                "};
