/* XPM */
static const char *const ManageAddins_xpm[] = {
"16 16 183 2",
"  	c None",
". 	c #C87F39",
"+ 	c #C77E39",
"@ 	c #C97F39",
"# 	c #478A00",
"$ 	c #488900",
"% 	c #488800",
"& 	c #498A00",
"* 	c #C98037",
"= 	c #DFA553",
"- 	c #FEC235",
"; 	c #FFCD39",
"> 	c #FFC93E",
", 	c #E5A75A",
"' 	c #8E8724",
") 	c #73BE00",
"! 	c #9ADF00",
"~ 	c #9ADE00",
"{ 	c #76BA00",
"] 	c #629D11",
"^ 	c #55920F",
"/ 	c #CE8C4A",
"( 	c #FFE99D",
"_ 	c #FFF2AC",
": 	c #FFDE65",
"< 	c #FFF5B0",
"[ 	c #FFF4AD",
"} 	c #D5844C",
"| 	c #C1D247",
"1 	c #94DE00",
"2 	c #95DC00",
"3 	c #C6EE5D",
"4 	c #E8FBA3",
"5 	c #91CE12",
"6 	c #61A300",
"7 	c #478800",
"8 	c #C77D38",
"9 	c #FFBA21",
"0 	c #FFB732",
"a 	c #FFFCD5",
"b 	c #FFCF4F",
"c 	c #FFD03D",
"d 	c #C97537",
"e 	c #C7D55D",
"f 	c #E0F9A4",
"g 	c #E1F7A5",
"h 	c #C2ED5C",
"i 	c #94DC00",
"j 	c #98DE00",
"k 	c #9CE100",
"l 	c #A2DE11",
"m 	c #518F07",
"n 	c #C77F3A",
"o 	c #FFD745",
"p 	c #FFC531",
"q 	c #FFF6C8",
"r 	c #FFD142",
"s 	c #FFDC4F",
"t 	c #CB753B",
"u 	c #A1BD04",
"v 	c #A2D313",
"w 	c #A4BA11",
"x 	c #97C300",
"y 	c #94D700",
"z 	c #92D800",
"A 	c #C3E75B",
"B 	c #EAF5A2",
"C 	c #579311",
"D 	c #AB6D31",
"E 	c #E0A646",
"F 	c #FFD54E",
"G 	c #FFF4C3",
"H 	c #FFD34E",
"I 	c #E19C43",
"J 	c #B79E24",
"K 	c #A3D113",
"L 	c #A9DC23",
"M 	c #99B500",
"N 	c #9AB500",
"O 	c #A3B70D",
"P 	c #FFFEED",
"Q 	c #C4E15C",
"R 	c #A2D200",
"S 	c #438600",
"T 	c #B17E2D",
"U 	c #D27D3B",
"V 	c #BE7F25",
"W 	c #CFCF86",
"X 	c #A4DF1D",
"Y 	c #B1E434",
"Z 	c #BCED4B",
"` 	c #99BB00",
" .	c #99BC00",
"..	c #96B600",
"+.	c #DFF1AE",
"@.	c #9CD103",
"#.	c #B2DE25",
"$.	c #4B8B02",
"%.	c #368B00",
"&.	c #A2C706",
"*.	c #C5DC5E",
"=.	c #E2ECB2",
"-.	c #BAEC46",
";.	c #BBEE4A",
">.	c #AAE727",
",.	c #98CF00",
"'.	c #99C200",
").	c #93BA00",
"!.	c #DBF0A4",
"~.	c #C4E75C",
"{.	c #DEF586",
"].	c #518F09",
"^.	c #428A00",
"/.	c #A0C200",
"(.	c #95B900",
"_.	c #DAE69E",
":.	c #D4F584",
"<.	c #AAE327",
"[.	c #93DA00",
"}.	c #95DB00",
"|.	c #93DB00",
"1.	c #A9D921",
"2.	c #F2FBD1",
"3.	c #C2E956",
"4.	c #BCEC3A",
"5.	c #438500",
"6.	c #A2C600",
"7.	c #98BE00",
"8.	c #CADD7C",
"9.	c #97BE00",
"0.	c #BBD949",
"a.	c #C5ED65",
"b.	c #A3DF15",
"c.	c #CBED70",
"d.	c #CAED6E",
"e.	c #DAF39F",
"f.	c #B7E93C",
"g.	c #C6F650",
"h.	c #448500",
"i.	c #488A00",
"j.	c #A5CA00",
"k.	c #9BC400",
"l.	c #C9DE75",
"m.	c #97BF00",
"n.	c #97BD00",
"o.	c #9CC001",
"p.	c #E9FAC4",
"q.	c #BBEB4A",
"r.	c #B8EB41",
"s.	c #DCF7A0",
"t.	c #C3F452",
"u.	c #D3FF66",
"v.	c #458600",
"w.	c #488700",
"x.	c #6BA300",
"y.	c #97C200",
"z.	c #CAE16E",
"A.	c #9BC500",
"B.	c #9AC400",
"C.	c #95BD00",
"D.	c #E8FCBF",
"E.	c #BFF14E",
"F.	c #C5F757",
"G.	c #E6FFAC",
"H.	c #C1F45D",
"I.	c #7CB625",
"J.	c #468500",
"K.	c #438300",
"L.	c #68A100",
"M.	c #98C200",
"N.	c #A0C800",
"O.	c #EBFFBF",
"P.	c #CFFF67",
"Q.	c #C4F662",
"R.	c #79B422",
"S.	c #3F7E00",
"T.	c #468800",
"U.	c #69A100",
"V.	c #96C000",
"W.	c #E7FFB8",
"X.	c #79B522",
"Y.	c #418300",
"Z.	c #4C8C00",
"    . + @     # $ % &           ",
"* = - ; > , ' ) ! ~ { ] ^       ",
"/ ( _ : < [ } | 1 2 3 4 5 6 7   ",
"8 9 0 a b c d e f g h i j k l m ",
"n o p q r s t u v w x y z A B C ",
"D E F G H I J K L M N O P Q R S ",
"    T U V W X Y Z `  ...+.@.#.$.",
"    %.&.*.=.-.;.>.,.'.).!.~.{.].",
"    ^./.(._.:.<.[.}.|.1.2.3.4.5.",
"    # 6.7.8.9.0.a.b.c.d.e.f.g.h.",
"    i.j.k.l.m.n.o.p.q.r.s.t.u.v.",
"    w.x.y.z.A.B.C.D.E.F.G.H.I.J.",
"        K.L.M.N.M.O.P.Q.R.S.    ",
"            T.U.V.W.X.Y.        ",
"                7 Z.            ",
"                                "};
