/* XPM */
static const char *const nodeTree_xpm[] = {
"16 16 136 2",
"  	c None",
". 	c #929292",
"+ 	c #8F8F8E",
"@ 	c #8E8D8D",
"# 	c #8E8E8D",
"$ 	c #8D8D8C",
"% 	c #8D8C8C",
"& 	c #8E8E8E",
"* 	c #FFFFFF",
"= 	c #FAF7F7",
"- 	c #FDF9F7",
"; 	c #FEF9F7",
"> 	c #F5F4F5",
", 	c #F3F3F5",
"' 	c #F2F2F5",
") 	c #F2F2F4",
"! 	c #7FA4C4",
"~ 	c #417AAE",
"{ 	c #417BAF",
"] 	c #81A5C5",
"^ 	c #E3E2E2",
"/ 	c #E0E0E2",
"( 	c #DFE0E2",
"_ 	c #DEDFE1",
": 	c #DDDEE0",
"< 	c #DBDCDE",
"[ 	c #D9DBDD",
"} 	c #D9DADC",
"| 	c #FEFEFF",
"1 	c #8C8C8C",
"2 	c #31699F",
"3 	c #BCDAF0",
"4 	c #91BEE2",
"5 	c #336AA0",
"6 	c #ECE9E8",
"7 	c #646362",
"8 	c #A3A3A2",
"9 	c #A1A1A1",
"0 	c #9F9F9E",
"a 	c #DCDDE0",
"b 	c #FBFDFC",
"c 	c #7A9CBC",
"d 	c #376EA3",
"e 	c #366DA2",
"f 	c #7B9CBC",
"g 	c #EEEAE9",
"h 	c #E9E8E9",
"i 	c #E7E7E9",
"j 	c #E6E6E8",
"k 	c #E4E4E6",
"l 	c #E3E2E4",
"m 	c #E1E1E3",
"n 	c #FBFBFC",
"o 	c #FFFEFE",
"p 	c #F2EFEF",
"q 	c #8E8A85",
"r 	c #FAF4F1",
"s 	c #F7F1ED",
"t 	c #F4EFEC",
"u 	c #F2EDEB",
"v 	c #EDEAEA",
"w 	c #E8E7E8",
"x 	c #E6E5E8",
"y 	c #E5E5E7",
"z 	c #FCFCFD",
"A 	c #F0F1F1",
"B 	c #888786",
"C 	c #FCFAF7",
"D 	c #89ABCB",
"E 	c #407AAE",
"F 	c #407AAD",
"G 	c #85A8C8",
"H 	c #F2F1EF",
"I 	c #EEEFEF",
"J 	c #EDEEEF",
"K 	c #ECEEEF",
"L 	c #ECEDEE",
"M 	c #8C8C8B",
"N 	c #FDFDFE",
"O 	c #F3F4F5",
"P 	c #888787",
"Q 	c #8F8B87",
"R 	c #346CA2",
"S 	c #90BDE1",
"T 	c #31699E",
"U 	c #FBF8F5",
"V 	c #61605F",
"W 	c #A0A0A0",
"X 	c #9D9D9C",
"Y 	c #8B8B8B",
"Z 	c #F6F7F8",
"` 	c #858585",
" .	c #80A2C2",
"..	c #346A9F",
"+.	c #7EA0C0",
"@.	c #F9F7F5",
"#.	c #F4F5F6",
"$.	c #F2F4F5",
"%.	c #F2F3F4",
"&.	c #FAFAFA",
"*.	c #838383",
"=.	c #FFFFFD",
"-.	c #FFFFFA",
";.	c #FFFFFC",
">.	c #FFFEF9",
",.	c #F9F7F4",
"'.	c #F4F4F4",
").	c #F4F4F3",
"!.	c #F3F3F3",
"~.	c #FEFEFE",
"{.	c #848383",
"].	c #8CB0CF",
"^.	c #4179AD",
"/.	c #8AADCC",
"(.	c #FFFEFB",
"_.	c #FCFCFB",
":.	c #FBFBFB",
"<.	c #828180",
"[.	c #8A8783",
"}.	c #326AA1",
"|.	c #BBD9F0",
"1.	c #8FBCE0",
"2.	c #2F679D",
"3.	c #5D5D5C",
"4.	c #9E9E9E",
"5.	c #9C9C9C",
"6.	c #9A9A9A",
"7.	c #84A5C6",
"8.	c #32699E",
"9.	c #82A4C4",
"0.	c #8D8D8D",
"a.	c #868686",
"b.	c #8A8A8A",
"c.	c #8B8A8A",
"d.	c #8C8B8B",
"e.	c #8D8C8B",
". + @ @ # @ $ $ $ $ $ $ % $ & . ",
"+ * = - ; = > , , , , ' ) ) * & ",
"$ * ! ~ { ] ^ / ( _ : < [ } | 1 ",
"$ * 2 3 4 5 6 7 8 9 0 ( : a b 1 ",
"% * c d e f g h i j k l m m n 1 ",
"1 o p q r s t u v w j x y y n 1 ",
"1 z A B C D E F G H I J K L z 1 ",
"M N O P Q R 3 S T U V W 0 X | 1 ",
"Y | Z ` *  .....+.@.#.O $.%.| 1 ",
"Y * &.*.=.-.;.;.>.,.'.).!.'.| Y ",
"Y * ~.{.* ].^.^./.(._.:.&.&.* Y ",
"Y * * <.[.}.|.1.2.* 3.4.5.6.* Y ",
"Y * * * * 7.8.8.9.* * * * * * Y ",
"0.* * * * * * * * * * * * * * 0.",
"a.0.b.b.c.d.e.e.d.c.b.b.b.b.0.a.",
"                                "};
