/* XPM */
static const char *const performance_xpm[] = {
"16 16 157 2",
"  	c None",
". 	c #8C8C8C",
"+ 	c #898989",
"@ 	c #888888",
"# 	c #E8E9EA",
"$ 	c #EAEBEC",
"% 	c #EBEDEE",
"& 	c #EBECED",
"* 	c #E9EAEB",
"= 	c #E6E7E9",
"- 	c #1E1C1E",
"; 	c #616063",
"> 	c #29282A",
", 	c #2E2D2F",
"' 	c #6B6B6E",
") 	c #3A393B",
"! 	c #3E3D3F",
"~ 	c #747478",
"{ 	c #454446",
"] 	c #474548",
"^ 	c #79797C",
"/ 	c #E4E5E8",
"( 	c #E4E6E7",
"_ 	c #272527",
": 	c #6C6A6D",
"< 	c #353132",
"[ 	c #3C3637",
"} 	c #757376",
"| 	c #4B484B",
"1 	c #4E4F50",
"2 	c #818185",
"3 	c #535455",
"4 	c #565456",
"5 	c #858588",
"6 	c #4D4B4F",
"7 	c #E2E3E4",
"8 	c #E0E1E3",
"9 	c #2B292B",
"0 	c #6B676A",
"a 	c #9EE3EB",
"b 	c #A3E4ED",
"c 	c #C4F2F8",
"d 	c #565659",
"e 	c #555456",
"f 	c #87878A",
"g 	c #5B5A5B",
"h 	c #5C5B5D",
"i 	c #89898C",
"j 	c #515052",
"k 	c #DEDFE1",
"l 	c #DCDDDF",
"m 	c #2E2A2C",
"n 	c #91A6AA",
"o 	c #7FC0C6",
"p 	c #0C4848",
"q 	c #3CB5B8",
"r 	c #86AEB3",
"s 	c #5B585A",
"t 	c #8A8B8F",
"u 	c #606062",
"v 	c #605F61",
"w 	c #8C8C8E",
"x 	c #555557",
"y 	c #DADCDE",
"z 	c #D7D8DA",
"A 	c #2F2B2C",
"B 	c #C5FCFF",
"C 	c #235456",
"D 	c #195B5C",
"E 	c #27878A",
"F 	c #89ECF2",
"G 	c #625A5C",
"H 	c #8D8B8E",
"I 	c #6C7173",
"J 	c #7D9297",
"K 	c #8A9092",
"L 	c #D6D8DA",
"M 	c #D1D3D5",
"N 	c #495558",
"O 	c #ACDFE5",
"P 	c #125455",
"Q 	c #1D6364",
"R 	c #2B9092",
"S 	c #39B5B9",
"T 	c #9FC4CB",
"U 	c #A1ADB0",
"V 	c #81F4FB",
"W 	c #6FC0C5",
"X 	c #C5FBFF",
"Y 	c #342F31",
"Z 	c #D2D4D6",
"` 	c #CCCBCE",
" .	c #73999F",
"..	c #74B1B5",
"+.	c #175C5D",
"@.	c #2C8E90",
"#.	c #1A6061",
"$.	c #43B6BA",
"%.	c #51D4D8",
"&.	c #166263",
"*.	c #105051",
"=.	c #84C3C7",
"-.	c #658186",
";.	c #CDCCD0",
">.	c #8A8A89",
",.	c #C6C6C7",
"'.	c #8BC0C7",
").	c #4E999C",
"!.	c #195A5C",
"~.	c #1C6261",
"{.	c #2E9295",
"].	c #206B6C",
"^.	c #1E696B",
"/.	c #2C9092",
"(.	c #1D6263",
"_.	c #478D8F",
":.	c #8DC3CA",
"<.	c #C7C6C8",
"[.	c #8A8A8A",
"}.	c #C2C0C2",
"|.	c #ACF7FF",
"1.	c #2C7B7C",
"2.	c #1A5B5D",
"3.	c #2E9395",
"4.	c #217072",
"5.	c #227373",
"6.	c #2F9498",
"7.	c #1D6566",
"8.	c #1A5D5E",
"9.	c #277C7E",
"0.	c #9EDEE5",
"a.	c #C2C1C3",
"b.	c #BDBDC0",
"c.	c #93CFD7",
"d.	c #19797B",
"e.	c #125657",
"f.	c #145E5F",
"g.	c #259092",
"h.	c #186C6E",
"i.	c #196E70",
"j.	c #269193",
"k.	c #146061",
"l.	c #125959",
"m.	c #1A7C7C",
"n.	c #94D0D9",
"o.	c #8B8B8B",
"p.	c #BBBBBF",
"q.	c #BBBABD",
"r.	c #C0BCC0",
"s.	c #C2BFC2",
"t.	c #C2BEC1",
"u.	c #C1BDC0",
"v.	c #C2BDC1",
"w.	c #C2BEC2",
"x.	c #BBB9BD",
"y.	c #BBBBBE",
"z.	c #858585",
". + @ @ @ @ @ @ @ @ @ @ @ @ + . ",
"+ # $ $ % & $ & $ * $ $ * # # + ",
"@ = - ; > , ' ) ! ~ { ] ^ { / @ ",
"+ ( _ : < [ } | 1 2 3 4 5 6 7 + ",
"+ 8 9 0 a b c d e f g h i j k + ",
"+ l m n o p q r s t u v w x y + ",
"+ z A B C D E F G H I J K { L + ",
"+ M N O P Q R S T U V W X Y Z + ",
"+ `  ...+.Q @.#.$.%.&.*.=.-.;.+ ",
">.,.'.).!.~.{.].^./.(.!._.:.<.>.",
"[.}.|.1.2.Q 3.4.5.6.7.8.9.0.a.[.",
"[.b.c.d.e.f.g.h.i.j.k.l.m.n.b.[.",
"o.p.q.r.s.t.u.v.v.u.t.w.r.x.y.o.",
"z.o.[.[.[.[.[.[.[.[.[.[.[.[.o.z.",
"                                ",
"                                "};
