/* XPM */
static const char *const ViewHardware_xpm[] = {
"16 16 127 2",
"  	c None",
". 	c #81807F",
"+ 	c #86817D",
"@ 	c #837E7B",
"# 	c #316E92",
"$ 	c #356E8F",
"% 	c #356E8E",
"& 	c #386F8F",
"* 	c #3D7392",
"= 	c #7D7A78",
"- 	c #BDD1E1",
"; 	c #BED0DD",
"> 	c #BECFDD",
", 	c #BDCFDF",
"' 	c #BDD0E0",
") 	c #BDCFDD",
"! 	c #BCD0E0",
"~ 	c #BCCFDE",
"{ 	c #C2D2DF",
"] 	c #387090",
"^ 	c #999999",
"/ 	c #7B7877",
"( 	c #A9C5DA",
"_ 	c #5888AC",
": 	c #5889AC",
"< 	c #ABA5A2",
"[ 	c #878382",
"} 	c #AAA5A2",
"| 	c #5488AC",
"1 	c #868382",
"2 	c #A8A3A0",
"3 	c #ACC5D8",
"4 	c #366F8F",
"5 	c #999998",
"6 	c #7C7977",
"7 	c #9FC0D9",
"8 	c #413833",
"9 	c #6194BA",
"0 	c #938F8E",
"a 	c #424143",
"b 	c #938E8D",
"c 	c #5E93BB",
"d 	c #414142",
"e 	c #908C8B",
"f 	c #A2C1D8",
"g 	c #376F8F",
"h 	c #7D7977",
"i 	c #95BCD8",
"j 	c #669AC0",
"k 	c #679CC3",
"l 	c #7D7877",
"m 	c #4D4B4C",
"n 	c #659DC5",
"o 	c #7C7877",
"p 	c #4B4A4C",
"q 	c #4A4A4C",
"r 	c #797575",
"s 	c #9ABDD8",
"t 	c #38708F",
"u 	c #9A9999",
"v 	c #7E7A77",
"w 	c #8CB7D8",
"x 	c #433832",
"y 	c #6CA1C8",
"z 	c #635C59",
"A 	c #524E4C",
"B 	c #635D59",
"C 	c #6BA2CA",
"D 	c #5F5A59",
"E 	c #48494C",
"F 	c #46474C",
"G 	c #575657",
"H 	c #8EB6D7",
"I 	c #7F7B78",
"J 	c #82B3D8",
"K 	c #70A6CE",
"L 	c #6FA5CC",
"M 	c #6EA5CE",
"N 	c #70A9D3",
"O 	c #6FA9D3",
"P 	c #6EA7D1",
"Q 	c #69A3CF",
"R 	c #FFFBBC",
"S 	c #FFF8BC",
"T 	c #FFF7B9",
"U 	c #81AFD4",
"V 	c #39708F",
"W 	c #827D7A",
"X 	c #7DB4DC",
"Y 	c #473B34",
"Z 	c #74ABD6",
"` 	c #6DA8D7",
" .	c #3B3638",
"..	c #6BAADE",
"+.	c #3D393C",
"@.	c #3E393A",
"#.	c #70A9D7",
"$.	c #6CA5D2",
"%.	c #67A1D2",
"&.	c #66A1D1",
"*.	c #7BAED6",
"=.	c #3A7090",
"-.	c #85807D",
";.	c #357295",
">.	c #3A7394",
",.	c #336E92",
"'.	c #FFF596",
").	c #E6A048",
"!.	c #FFF49B",
"~.	c #E6A24B",
"{.	c #FFF89B",
"].	c #326D92",
"^.	c #376E8F",
"/.	c #316B8F",
"(.	c #FFF591",
"_.	c #336D90",
":.	c #376985",
"<.	c #85817E",
"[.	c #397091",
"}.	c #346F95",
"|.	c #316F97",
"1.	c #306F96",
"2.	c #326F97",
"3.	c #347096",
"4.	c #3A7091",
"5.	c #387093",
"6.	c #83807F",
"                                ",
"                                ",
". +                             ",
"  @ # $ % % $ $ % % % $ $ % & * ",
"  = - ; > , ' ' , ) , ' ! ~ { ] ",
"^ / ( _ : < [ [ } | } [ 1 2 3 4 ",
"5 6 7 8 9 0 a a b c b a d e f g ",
"5 h i j k l m m l n o p q r s t ",
"u v w x y z A A B C D E F G H t ",
"  I J K L M N O O P Q R S T U V ",
"  W X Y Z `  ...+.@.#.$.%.&.*.=.",
"  -.;.>.,.'.).!.~.{.].^./.(._.:.",
"  <.    [.}.|.1.2.3.4.  =.5.4.  ",
"  6.                            ",
"                                ",
"                                "};
